<?xml version="1.0" encoding="UTF-8"?>
<svg width="251px" height="251px" viewBox="0 0 251 251" version="1.1" xmlns="http://www.w3.org/2000/svg" xmlns:xlink="http://www.w3.org/1999/xlink">
    <!-- Generator: Sketch 49.3 (51167) - http://www.bohemiancoding.com/sketch -->
    <title>Slice 1</title>
    <desc>Created with Sketch.</desc>
    <defs></defs>
    <g id="Page-1" stroke="none" stroke-width="1" fill="none" fill-rule="evenodd">
        <g id="musica-searcher" fill="#FFFFFF" fill-rule="nonzero">
            <path d="M244.186,214.604 L189.807,160.226 C189.518,159.937 189.179,159.735 188.877,159.466 C199.577,143.235 205.822,123.806 205.822,102.912 C205.822,46.075 159.747,0 102.911,0 C46.075,0 0,46.075 0,102.911 C0,159.746 46.074,205.822 102.91,205.822 C123.805,205.822 143.233,199.577 159.464,188.877 C159.733,189.178 159.934,189.517 160.223,189.806 L214.603,244.186 C222.772,252.354 236.016,252.354 244.186,244.186 C252.354,236.017 252.354,222.773 244.186,214.604 Z M102.911,170.146 C65.777,170.146 35.675,140.044 35.675,102.911 C35.675,65.777 65.778,35.675 102.911,35.675 C140.043,35.675 170.146,65.778 170.146,102.911 C170.146,140.044 140.043,170.146 102.911,170.146 Z" id="Shape"></path>
        </g>
    </g>
</svg>